<?xml version="1.0" standalone="no"?>
<svg xmlns:xlink="http://www.w3.org/1999/xlink" id="wave" style="transform:rotate(0deg); transition: 0.3s" viewBox="0 0 1440 160" version="1.1" xmlns="http://www.w3.org/2000/svg"><defs><linearGradient id="sw-gradient-0" x1="0" x2="0" y1="1" y2="0"><stop stop-color="rgba(34, 106, 73, 1)" offset="0%"/><stop stop-color="rgba(34, 106, 73, 1)" offset="100%"/></linearGradient></defs><path style="transform:translate(0, 0px); opacity:1" fill="url(#sw-gradient-0)" d="M0,32L40,26.7C80,21,160,11,240,16C320,21,400,43,480,64C560,85,640,107,720,104C800,101,880,75,960,56C1040,37,1120,27,1200,32C1280,37,1360,59,1440,80C1520,101,1600,123,1680,125.3C1760,128,1840,112,1920,109.3C2000,107,2080,117,2160,106.7C2240,96,2320,64,2400,61.3C2480,59,2560,85,2640,93.3C2720,101,2800,91,2880,96C2960,101,3040,123,3120,130.7C3200,139,3280,133,3360,109.3C3440,85,3520,43,3600,32C3680,21,3760,43,3840,64C3920,85,4000,107,4080,114.7C4160,123,4240,117,4320,98.7C4400,80,4480,48,4560,48C4640,48,4720,80,4800,85.3C4880,91,4960,69,5040,61.3C5120,53,5200,59,5280,69.3C5360,80,5440,96,5520,85.3C5600,75,5680,37,5720,18.7L5760,0L5760,160L5720,160C5680,160,5600,160,5520,160C5440,160,5360,160,5280,160C5200,160,5120,160,5040,160C4960,160,4880,160,4800,160C4720,160,4640,160,4560,160C4480,160,4400,160,4320,160C4240,160,4160,160,4080,160C4000,160,3920,160,3840,160C3760,160,3680,160,3600,160C3520,160,3440,160,3360,160C3280,160,3200,160,3120,160C3040,160,2960,160,2880,160C2800,160,2720,160,2640,160C2560,160,2480,160,2400,160C2320,160,2240,160,2160,160C2080,160,2000,160,1920,160C1840,160,1760,160,1680,160C1600,160,1520,160,1440,160C1360,160,1280,160,1200,160C1120,160,1040,160,960,160C880,160,800,160,720,160C640,160,560,160,480,160C400,160,320,160,240,160C160,160,80,160,40,160L0,160Z"/></svg>